<svg xmlns="http://www.w3.org/2000/svg" xmlns:xlink="http://www.w3.org/1999/xlink" version="1.2" baseProfile="tiny" x="0px" y="0px" viewBox="0 0 100 125"  xml:space="preserve"><g><path d="M55.9,64.5c0-5.1-4.1-9.2-9.2-9.2s-9.2,4.1-9.2,9.2s4.1,9.2,9.2,9.2S55.9,69.6,55.9,64.5z"/><path d="M85.8,22.9c1.3-5.7-0.1-11-3.9-13.2c-2.9-1.7-6.6-1.3-10,0.7c-1-4.3-3.4-7.4-6.8-8.3c-2.7-0.7-5.5,0-8.1,2   c-1.8-1.7-3.8-2.6-6-2.6c-2.2,0-4.2,1-6,2.6c-2.6-2-5.5-2.8-8.1-2c-2.9,0.8-5.2,3.2-6.4,6.7c-0.2,0.5-0.3,1-0.4,1.5   c-3.5-2-7.2-2.3-10-0.7c-2.6,1.5-4.2,4.4-4.4,8.1c-0.1,1,0,2.1,0.1,3.1C8,29.5,3.8,40.6,3.8,52.1c0,25.5,20.7,46.2,46.2,46.2   s46.2-20.7,46.2-46.2C96.2,41.5,92.6,31.1,85.8,22.9z M82.4,30.6c0.2,0.2,0.3,0.5,0.4,0.7c-1.3,7.8-3.4,15.3-6.4,21.8   c-0.3-0.9-0.7-1.8-1.1-2.8c2.3-5.2,4-11.1,5-17.2C81.1,32.3,81.8,31.5,82.4,30.6z M88.8,51.8c0,0.7,0,1.4-0.1,2.1   c-3.5,1.9-7.1,3.4-10.5,4.6c-0.2-0.7-0.3-1.3-0.5-2c0,0,0-0.1,0.1-0.1c3.7-1.2,7.4-2.8,11.1-4.8C88.7,51.6,88.8,51.7,88.8,51.8z    M32.9,64.5c0-4.1,1.7-10.1,4.3-15c2.9-5.5,6.3-8.7,9.5-8.7s6.6,3.2,9.5,8.7c1.3,2.4,2.3,5.1,3,7.7c0,0,0,0,0,0c0,0,0,0,0,0   c0.8,2.7,1.2,5.2,1.2,7.3c0,7.6-6.2,13.8-13.8,13.8S32.9,72.1,32.9,64.5z M13.8,37.8c5.6,1.6,10.8,3.6,15.4,6   c-0.9,0.4-1.8,0.7-2.7,1.1c-4-2.1-8.5-3.9-13.3-5.2C13.4,39.1,13.6,38.5,13.8,37.8z M31,59.6c-1.2-0.8-2.5-1.5-3.8-2.1   c1.6-0.8,3.2-1.4,4.8-2C31.6,56.9,31.2,58.3,31,59.6z M33,52.5c-3,0.9-6,2.1-9,3.7c-1-0.3-1.9-0.5-2.9-0.7   c4.4-2.5,8.8-4.5,13.1-5.8C33.8,50.7,33.4,51.6,33,52.5z M35.8,46.7c-6.1,1.5-12.6,4.4-18.8,8.4c-1.4,0-2.8,0-4.2,0.2   c8.2-5.6,17-9.6,25-11.6C37.1,44.7,36.4,45.7,35.8,46.7z M23.5,46.3c-0.8,0.4-1.7,0.8-2.5,1.2c-2.8-1.4-5.8-2.5-9-3.3   c0.1-0.7,0.3-1.3,0.4-2C16.4,43.3,20.1,44.7,23.5,46.3z M11.8,58.1c4.1-0.8,8.2-0.5,12.1,0.7c0,0,0,0,0,0c2.4,0.8,4.6,2,6.7,3.5   c-0.1,0.8-0.1,1.5-0.1,2.1c0,0.3,0,0.7,0.1,1c-5-4.4-11.6-6.3-18.2-5C12.1,59.7,11.9,58.9,11.8,58.1z M60.2,73.4   c0.8,0.2,1.6,0.3,2.4,0.3c5.1,0,9.2-4.1,9.2-9.2s-4.1-9.2-9.2-9.2c-0.5,0-0.9,0-1.4,0.1c-1.2-3.7-2.9-7.5-5.1-10.6   c1.6-1.9,3.9-4,6.5-4c3.2,0,6.6,3.2,9.5,8.7c2.5,4.9,4.3,10.9,4.3,15c0,7.6-6.2,13.8-13.8,13.8c-2,0-3.9-0.4-5.7-1.2   C58.3,76,59.3,74.7,60.2,73.4z M88.6,48.7c-3.2,1.8-6.3,3.3-9.5,4.5c0.4-0.9,0.8-1.8,1.1-2.7c2.7-1,5.4-2.4,8.1-4   C88.5,47.2,88.6,48,88.6,48.7z M73.9,47.4c-0.4-0.8-0.9-1.5-1.4-2.2c1-2.5,1.8-5.2,2.4-8c0.2-0.1,0.3-0.1,0.5-0.2   c0.7-0.3,1.3-0.7,2-1.2C76.5,39.8,75.3,43.7,73.9,47.4z M24.3,73.4c-2.2-2.3-5.3-3.4-8.4-3.3c-0.4-0.8-0.8-1.6-1.2-2.4   c4.2-0.5,8.4,0.9,11.4,3.9c3.4,3.4,4.8,8.5,3.6,13.1c-0.8-0.5-1.5-1-2.2-1.5C28,79.7,26.9,76,24.3,73.4z M27.8,69.9   c-3.7-3.7-9-5.4-14.1-4.5c-0.3-0.8-0.6-1.6-0.8-2.4c6.1-1.2,12.3,0.7,16.7,5.2c0.7,0.7,1.3,1.4,1.9,2.2c0,0,0,0,0.1,0.1   c0.6,1.4,1.3,2.7,2.2,3.9c0,0,0,0.1,0,0.1c1.7,4.1,1.8,8.6,0.4,12.8c-0.8-0.3-1.5-0.7-2.3-1.1C33.6,80.4,32.1,74.1,27.8,69.9z    M37.3,77.7c0.9,0.6,1.8,1.1,2.7,1.6c0.3,3.3-0.1,6.6-1.1,9.6c-0.8-0.2-1.6-0.5-2.4-0.8C37.6,84.7,37.9,81.2,37.3,77.7z M41.5,88.8   c5.2-0.1,10.1,0.3,14.6,1.3c-2,0.3-4.1,0.5-6.2,0.5c-3,0-5.9-0.4-8.7-1C41.4,89.3,41.5,89,41.5,88.8z M61.4,88.8   c-5.6-1.8-12.3-2.7-19.2-2.6c0.1-0.7,0.2-1.4,0.3-2.1c8.3,0,16.1,1.1,22.7,3.3C63.9,88,62.7,88.5,61.4,88.8z M77.8,11.1   c1,0,2,0.2,2.9,0.7c4,2.3,4.3,9.4,0.6,15.7h0c-1.8,3.2-4.3,5.6-7.1,7c-2.6,1.3-5,1.4-6.9,0.3c-1.9-1.1-3-3.2-3.2-6.1   c-0.2-3.1,0.7-6.5,2.5-9.6C69.6,14.2,74.1,11.1,77.8,11.1z M64.5,4.6c2.6,0.7,4.6,3.5,5.2,7.4c-1.9,1.5-3.7,3.6-5.1,6   c-2.1,3.6-3.1,7.5-2.9,11c0,0.3,0.1,0.5,0.1,0.8c-1.4,0.7-2.9,0.9-4.2,0.5c-4.5-1.2-6.6-7.9-4.7-15c0.9-3.5,2.7-6.6,5-8.6   C60.1,4.7,62.4,4,64.5,4.6z M51,4.1c1.7,0,3.1,0.8,4.1,1.8c-2.1,2.3-3.8,5.3-4.7,8.7c-1.7,6.3-0.5,12.4,2.6,15.7   c-0.7,0.3-1.4,0.4-2.1,0.4c-4.6,0-8.4-6-8.4-13.3S46.4,4.1,51,4.1z M32.9,9.6c0.9-2.7,2.6-4.5,4.6-5.1c1.9-0.5,3.9,0,5.9,1.5   c-2,2.9-3.3,6.9-3.3,11.3c0,5.3,1.8,9.9,4.5,12.8c-0.1,0-0.1,0-0.2,0.1c-4.5,1.2-9.7-3.6-11.6-10.7C31.9,16.1,32,12.5,32.9,9.6z    M18.2,18c0.2-2.9,1.3-5,3.2-6.1c2.2-1.3,5.4-0.8,8.4,1.2c-0.2,2.3,0.1,4.7,0.7,7.1c1.3,4.7,3.9,8.6,7,10.8c-0.4,1.4-1.2,3-2.8,3.9   c-1.9,1.1-4.3,1-6.9-0.3c-2.7-1.4-5.2-3.8-7.1-7C18.9,24.5,18,21.1,18.2,18z M50,95.9c-24.1,0-43.8-19.6-43.8-43.8   c0-10.3,3.6-20.2,10.2-28.1c0.2,0.8,0.6,1.7,0.9,2.5c-5.7,7.3-8.6,16-8.6,25.3C8.8,59.1,10.7,66,14,72c0,0.1,0.1,0.2,0.1,0.2   C21.3,84.6,34.7,93.1,50,93.1c22.7,0,41.2-18.5,41.2-41.2c0-8.5-2.6-16.7-7.4-23.6c0.4-0.8,0.8-1.6,1.1-2.4   c5.7,7.6,8.8,16.8,8.8,26.3C93.8,76.3,74.1,95.9,50,95.9z"/></g></svg>
